<?xml version="1.0" encoding="UTF-8" standalone="no"?>
<!-- Created with Inkscape (http://www.inkscape.org/) -->

<svg
   width="800"
   height="500"
   viewBox="0 0 211.66666 132.29167"
   version="1.1"
   id="svg1"
   inkscape:version="1.3.2 (091e20ef0f, 2023-11-25, custom)"
   sodipodi:docname="patch2.svg"
   xml:space="preserve"
   xmlns:inkscape="http://www.inkscape.org/namespaces/inkscape"
   xmlns:sodipodi="http://sodipodi.sourceforge.net/DTD/sodipodi-0.dtd"
   xmlns="http://www.w3.org/2000/svg"
   xmlns:svg="http://www.w3.org/2000/svg"><sodipodi:namedview
     id="namedview1"
     pagecolor="#ffffff"
     bordercolor="#000000"
     borderopacity="0.25"
     inkscape:showpageshadow="2"
     inkscape:pageopacity="0.0"
     inkscape:pagecheckerboard="0"
     inkscape:deskcolor="#d1d1d1"
     inkscape:document-units="mm"
     inkscape:zoom="1"
     inkscape:cx="416.5"
     inkscape:cy="299.5"
     inkscape:window-width="1908"
     inkscape:window-height="1046"
     inkscape:window-x="0"
     inkscape:window-y="0"
     inkscape:window-maximized="1"
     inkscape:current-layer="layer1" /><defs
     id="defs1" /><g
     inkscape:label="Layer 1"
     inkscape:groupmode="layer"
     id="layer1"><rect
       style="fill:none;stroke:#1a1a1a;stroke-width:0.499999;stroke-dashoffset:0.591215"
       id="rect1"
       class="process"
       width="29.500002"
       height="29.500002"
       x="0.82894576"
       y="0.91378528" /><rect
       style="fill:none;stroke:#1a1a1a;stroke-width:0.499999;stroke-dashoffset:0.591215"
       id="rect1-2"
       width="29.500002"
       height="29.500002"
       x="87.221634"
       y="51.309299" /><circle
       style="fill:none;stroke:#1a1a1a;stroke-width:0.499999;stroke-dashoffset:0.591215"
       id="path1"
       cx="15.127598"
       cy="66.059303"
       r="14.75" /><!--!Font Awesome Free 6.6.0 by @fontawesome - https://fontawesome.com License - https://fontawesome.com/license/free Copyright 2024 Fonticons, Inc.--><path
       d="m 199.30218,51.173364 c 4.05626,3.45315 6.65,8.73444 6.65,14.64476 0,5.91032 -2.59374,11.18505 -6.65,14.64475 -0.64374,0.5504 -1.58749,0.44557 -2.1125,-0.22934 -0.525,-0.67491 -0.425,-1.66432 0.21876,-2.21473 3.38749,-2.88308 5.54374,-7.27323 5.54374,-12.20068 0,-4.92746 -2.15625,-9.31761 -5.54374,-12.20724 -0.64376,-0.55041 -0.73751,-1.53983 -0.21876,-2.21473 0.51876,-0.67491 1.46876,-0.77319 2.1125,-0.22934 z m -3.78125,4.88159 c 2.7,2.30646 4.43125,5.82514 4.43125,9.76317 0,3.93803 -1.73125,7.4567 -4.43125,9.76316 -0.64375,0.55041 -1.58749,0.44558 -2.11249,-0.22933 -0.525,-0.6749 -0.425,-1.66432 0.21876,-2.21473 2.03124,-1.72985 3.32498,-4.36394 3.32498,-7.3191 0,-2.95516 -1.29374,-5.58925 -3.32498,-7.32566 -0.64376,-0.5504 -0.73751,-1.53982 -0.21876,-2.21473 0.51874,-0.6749 1.46874,-0.77319 2.11249,-0.22933 z m -3.78124,4.88158 c 1.34375,1.15323 2.21249,2.9093 2.21249,4.88159 0,1.97229 -0.86874,3.72835 -2.21249,4.88158 -0.64376,0.55041 -1.58749,0.44557 -2.11251,-0.22934 -0.525,-0.67489 -0.42498,-1.66432 0.21875,-2.21473 0.675,-0.57661 1.10625,-1.45464 1.10625,-2.43751 0,-0.98287 -0.43125,-1.8609 -1.10625,-2.44407 -0.64373,-0.55041 -0.73749,-1.53983 -0.21875,-2.21473 0.51875,-0.67491 1.46875,-0.7732 2.11251,-0.22934 z m -6.96876,-9.61246 c 0.71876,0.34073 1.18125,1.08771 1.18125,1.91332 v 25.16146 c 0,0.8256 -0.46249,1.57258 -1.18125,1.91331 -0.71875,0.34073 -1.56249,0.20312 -2.15,-0.34728 l -8.43125,-7.8564 h -4.23751 c -2.20625,0 -3.99999,-1.88055 -3.99999,-4.19357 v -4.19358 c 0,-2.31302 1.79374,-4.19358 3.99999,-4.19358 h 4.23751 l 8.43125,-7.8564 c 0.58751,-0.55041 1.43125,-0.68146 2.15,-0.34728 z"
       id="path1-7"
       style="stroke-width:0.264583" /><path
       style="fill:#ff0000;stroke:#1a1a1a;stroke-width:0.5;stroke-dasharray:1.5, 0.5;stroke-dashoffset:0"
       d="m 14.808696,32.341996 c 0,17.001201 0.114681,17.045545 0.114681,17.045545"
       id="path5" /><path
       style="fill:#ff0000;stroke:#1a1a1a;stroke-width:0.499999;stroke-dasharray:1.5, 0.499999;stroke-dashoffset:0"
       d="m 31.439092,66.404034 54.493757,-0.0787 v 0"
       id="path6" /><path
       style="fill:#ff0000;stroke:#1a1a1a;stroke-width:0.499999;stroke-dasharray:1.5, 0.499999;stroke-dashoffset:0"
       d="m 117.82817,66.193024 46.22672,-0.30965"
       id="path7" /><g
       style="fill:#000000;stroke-width:10.5833"
       id="g7"
       transform="matrix(0.34482759,0,0,0.34482759,-0.05711352,-47.983099)"><g
         id="g21"
         style="stroke-width:10.5833">
	
	
	
	
	
	
	
	
	
	
	
	
	
	
	
	
	
	
	
	
	
	
	
</g></g></g></svg>
