<?xml version="1.0" encoding="UTF-8" standalone="no"?>
<!-- Uploaded to: SVG Repo, www.svgrepo.com, Generator: SVG Repo Mixer Tools -->

<svg
   width="800px"
   height="800px"
   viewBox="0 0 512 512"
   version="1.1"
   id="svg1"
   sodipodi:docname="sound.svg"
   inkscape:version="1.3.2 (091e20ef0f, 2023-11-25, custom)"
   xmlns:inkscape="http://www.inkscape.org/namespaces/inkscape"
   xmlns:sodipodi="http://sodipodi.sourceforge.net/DTD/sodipodi-0.dtd"
   xmlns="http://www.w3.org/2000/svg"
   xmlns:svg="http://www.w3.org/2000/svg">
  <defs
     id="defs1" />
  <sodipodi:namedview
     id="namedview1"
     pagecolor="#ffffff"
     bordercolor="#000000"
     borderopacity="0.25"
     inkscape:showpageshadow="2"
     inkscape:pageopacity="0.0"
     inkscape:pagecheckerboard="0"
     inkscape:deskcolor="#d1d1d1"
     inkscape:zoom="0.70346974"
     inkscape:cx="398.73783"
     inkscape:cy="467.68181"
     inkscape:window-width="1908"
     inkscape:window-height="1046"
     inkscape:window-x="0"
     inkscape:window-y="0"
     inkscape:window-maximized="1"
     inkscape:current-layer="svg1" />
  <title
     id="title1">sound-loud</title>
  <!--!Font Awesome Free 6.6.0 by @fontawesome - https://fontawesome.com License - https://fontawesome.com/license/free Copyright 2024 Fonticons, Inc.-->
  <!--!Font Awesome Free 6.6.0 by @fontawesome - https://fontawesome.com License - https://fontawesome.com/license/free Copyright 2024 Fonticons, Inc.-->
  <path
     fill="#63e6be"
     d="m 392.704,112.97863 c 41.536,33.728 68.096,85.312 68.096,143.04 0,57.728 -26.56,109.248 -68.096,143.04 -6.592,5.376 -16.256,4.352 -21.632,-2.24 -5.376,-6.592 -4.352,-16.256 2.24,-21.632 34.688,-28.16 56.768,-71.04 56.768,-119.168 0,-48.128 -22.08,-91.008 -56.768,-119.232 -6.592,-5.376 -7.552,-15.04 -2.24,-21.632 5.312,-6.592 15.04,-7.552 21.632,-2.24 z m -38.72,47.68 c 27.648,22.528 45.376,56.896 45.376,95.36 0,38.464 -17.728,72.832 -45.376,95.36 -6.592,5.376 -16.256,4.352 -21.632,-2.24 -5.376,-6.592 -4.352,-16.256 2.24,-21.632 20.8,-16.896 34.048,-42.624 34.048,-71.488 0,-28.864 -13.248,-54.592 -34.048,-71.552 -6.592,-5.376 -7.552,-15.04 -2.24,-21.632 5.312,-6.592 15.04,-7.552 21.632,-2.24 z m -38.72,47.68 c 13.76,11.264 22.656,28.416 22.656,47.68 0,19.264 -8.896,36.416 -22.656,47.68 -6.592,5.376 -16.256,4.352 -21.632,-2.24 -5.376,-6.592 -4.352,-16.256 2.24,-21.632 6.912,-5.632 11.328,-14.208 11.328,-23.808 0,-9.6 -4.416,-18.176 -11.328,-23.872 -6.592,-5.376 -7.552,-15.04 -2.24,-21.632 5.312,-6.592 15.04,-7.552 21.632,-2.24 z m -71.36,-93.888 c 7.36,3.328 12.096,10.624 12.096,18.688 v 245.76 c 0,8.064 -4.736,15.36 -12.096,18.688 -7.36,3.328 -16,1.984 -22.016,-3.392 l -86.336,-76.736 H 92.160002 c -22.592005,0 -40.960005,-18.368 -40.960005,-40.96 v -40.96 c 0,-22.592 18.368,-40.96 40.960005,-40.96 H 135.552 l 86.336,-76.736 c 6.016,-5.376 14.656,-6.656 22.016,-3.392 z"
     id="path1"
     style="stroke-width:0.64;fill:#ffffff" />
  <rect
     style="fill:none;stroke:#ffffff;stroke-width:12.8"
     id="rect1"
     width="498.31549"
     height="498.44421"
     x="6.4000001"
     y="6.3999996" />
</svg>
