<?xml version="1.0" encoding="UTF-8" standalone="no"?>
<!-- Uploaded to: SVG Repo, www.svgrepo.com, Generator: SVG Repo Mixer Tools -->

<svg
   fill="#000000"
   height="413.79309"
   width="800"
   version="1.1"
   id="Capa_1"
   viewBox="0 0 58 29.999999"
   xml:space="preserve"
   sodipodi:docname="synth.svg"
   xmlns:inkscape="http://www.inkscape.org/namespaces/inkscape"
   xmlns:sodipodi="http://sodipodi.sourceforge.net/DTD/sodipodi-0.dtd"
   xmlns="http://www.w3.org/2000/svg"
   xmlns:svg="http://www.w3.org/2000/svg"><defs
   id="defs21" /><sodipodi:namedview
   id="namedview21"
   pagecolor="#ffffff"
   bordercolor="#000000"
   borderopacity="0.25"
   inkscape:showpageshadow="2"
   inkscape:pageopacity="0.0"
   inkscape:pagecheckerboard="0"
   inkscape:deskcolor="#d1d1d1" />
<g
   id="g21"
   transform="translate(0,-28.000002)">
	
	
	
	
	
	
	
	
	
	
	
	
	
	
	
	
	
	
	
	
	<path
   d="m 0,32 v 2 24 h 8 2 6 2 6 2 6 2 6 2 6 2 8 V 34 32 28 H 0 Z M 8,56 H 2 V 34 h 4 v 16 h 2 z m 8,0 h -6 v -6 h 2 V 34 h 2 v 16 h 2 z m 8,0 h -6 v -6 h 2 V 34 h 2 v 16 h 2 z m 8,0 h -6 v -6 h 2 V 34 h 2 v 16 h 2 z m 8,0 h -6 v -6 h 2 V 34 h 2 v 16 h 2 z m 8,0 h -6 v -6 h 2 V 34 h 2 v 16 h 2 z m 8,0 h -6 v -6 h 2 V 34 h 4 z"
   id="path20" />
	
	
</g>
</svg>
